<?xml version="1.0" encoding="UTF-8" standalone="no"?>
<!-- Created with Inkscape (http://www.inkscape.org/) -->

<svg
   width="128"
   height="128"
   viewBox="0 0 128 128"
   version="1.1"
   id="svg1"
   inkscape:version="1.3.2 (091e20ef0f, 2023-11-25, custom)"
   sodipodi:docname="pluginIcon.svg"
   xmlns:inkscape="http://www.inkscape.org/namespaces/inkscape"
   xmlns:sodipodi="http://sodipodi.sourceforge.net/DTD/sodipodi-0.dtd"
   xmlns:xlink="http://www.w3.org/1999/xlink"
   xmlns="http://www.w3.org/2000/svg"
   xmlns:svg="http://www.w3.org/2000/svg">
  <sodipodi:namedview
     id="namedview1"
     pagecolor="#ffffff"
     bordercolor="#000000"
     borderopacity="0.25"
     inkscape:showpageshadow="2"
     inkscape:pageopacity="0.0"
     inkscape:pagecheckerboard="0"
     inkscape:deskcolor="#d1d1d1"
     inkscape:document-units="px"
     inkscape:zoom="2"
     inkscape:cx="-81.5"
     inkscape:cy="71.5"
     inkscape:window-width="2560"
     inkscape:window-height="1350"
     inkscape:window-x="0"
     inkscape:window-y="54"
     inkscape:window-maximized="1"
     inkscape:current-layer="layer1" />
  <defs
     id="defs1">
    <inkscape:path-effect
       effect="fillet_chamfer"
       id="path-effect1"
       is_visible="true"
       lpeversion="1"
       nodesatellites_param="F,0,0,1,0,5,0,1 @ F,0,0,1,0,5,0,1 @ F,0,0,1,0,5,0,1 @ F,0,0,1,0,5,0,1"
       radius="5"
       unit="px"
       method="auto"
       mode="F"
       chamfer_steps="1"
       flexible="false"
       use_knot_distance="true"
       apply_no_radius="true"
       apply_with_radius="true"
       only_selected="false"
       hide_knots="false" />
    <linearGradient
       inkscape:collect="always"
       xlink:href="#linearGradient1-5"
       id="linearGradient2-7"
       x1="0"
       y1="0"
       x2="32"
       y2="32"
       gradientUnits="userSpaceOnUse" />
    <linearGradient
       id="linearGradient1-5"
       inkscape:collect="always">
      <stop
         style="stop-color:#f01c1c;stop-opacity:1;"
         offset="0.07417218"
         id="stop1-3" />
      <stop
         style="stop-color:#8a0f64;stop-opacity:1;"
         offset="0.35430458"
         id="stop3" />
      <stop
         style="stop-color:#ff069a;stop-opacity:1;"
         offset="0.9417218"
         id="stop2-5" />
    </linearGradient>
    <inkscape:path-effect
       effect="fillet_chamfer"
       id="path-effect1-6"
       is_visible="true"
       lpeversion="1"
       nodesatellites_param="IC,0,0,1,0,4,0,1 @ IC,0,0,1,0,4,0,1 @ IC,0,0,1,0,4,0,1 @ IC,0,0,1,0,4,0,1"
       radius="4"
       unit="px"
       method="auto"
       mode="F"
       chamfer_steps="1"
       flexible="false"
       use_knot_distance="true"
       apply_no_radius="true"
       apply_with_radius="true"
       only_selected="false"
       hide_knots="false" />
    <inkscape:path-effect
       effect="fillet_chamfer"
       id="path-effect12"
       is_visible="true"
       lpeversion="1"
       nodesatellites_param="IC,0,0,1,0,10,0,1 @ IC,0,0,1,0,10,0,1 @ IC,0,0,1,0,10,0,1 @ IC,0,0,1,0,10,0,1"
       radius="10"
       unit="px"
       method="auto"
       mode="F"
       chamfer_steps="1"
       flexible="false"
       use_knot_distance="true"
       apply_no_radius="true"
       apply_with_radius="true"
       only_selected="false"
       hide_knots="false" />
  </defs>
  <g
     inkscape:label="Слой 1"
     inkscape:groupmode="layer"
     id="layer1">
    <path
       style="fill:url(#linearGradient2-7);fill-opacity:1;stroke-width:5.496;stroke-linejoin:bevel;stroke-miterlimit:40.6"
       id="rect1"
       width="32"
       height="32"
       x="0"
       y="0"
       sodipodi:type="rect"
       d="m 4,0 h 24 l 4,4 v 24 l -4,4 H 4 L 0,28 V 4 Z"
       inkscape:path-effect="#path-effect1-6"
       transform="scale(4)" />
    <path
       style="fill:#000000;fill-opacity:0.865067;stroke-width:5.496;stroke-linejoin:bevel;stroke-miterlimit:40.6"
       id="rect11"
       width="32"
       height="32"
       x="0"
       y="0"
       rx="0"
       ry="0"
       inkscape:path-effect="#path-effect12"
       sodipodi:type="rect"
       d="M 10,0 H 22 L 32,10 V 22 L 22,32 H 10 L 0,22 V 10 Z"
       transform="scale(3.9999999)" />
    <path
       style="fill:#ffffff;fill-opacity:0.853039;stroke:none;stroke-width:3.53198;stroke-linejoin:bevel;stroke-miterlimit:40.6;stroke-dasharray:none;paint-order:normal"
       d="m 26.019894,29.396726 v 5.071381 h 1.399849 c 4.976852,0 6.866318,0.379192 7.711445,1.412128 0.657313,0.93903 0.650809,1.21409 0.650809,7.036079 v 29.765201 c 0,7.887859 0.659431,11.841579 2.443594,15.128188 3.850022,7.04272 12.951575,10.793567 26.191903,10.793567 12.019585,0 19.257585,-3.194656 23.858824,-10.425184 2.629289,-4.319535 3.376824,-8.349751 3.376824,-19.524207 V 49.768205 C 91.465382,37.654717 93.247111,34.937629 101.9801,34.468107 V 29.396726 H 75.223341 v 5.071381 c 8.545178,0.46952 10.330578,3.186612 10.14277,15.300098 v 18.885678 c 0,7.70004 -0.3756,11.356916 -1.596321,13.986203 -2.723183,5.915897 -8.075336,8.914832 -15.963189,8.914832 -5.446375,0 -9.392219,-1.49368 -12.021507,-4.592487 -2.065867,-2.535385 -3.094401,-7.143581 -3.094401,-13.99849 V 42.916315 c 0,-5.82199 -0.0065,-6.09705 0.650809,-7.03608 0.845128,-1.032905 2.726639,-1.412128 7.797403,-1.412128 h 1.399845 v -5.071381 z"
       id="path2" />
  </g>
</svg>
