<?xml version="1.0" encoding="UTF-8" standalone="no"?>
<!-- Created with Inkscape (http://www.inkscape.org/) -->

<svg
   width="120"
   height="120"
   viewBox="0 0 120 120"
   version="1.1"
   id="svg1"
   inkscape:version="1.3.2 (091e20ef0f, 2023-11-25, custom)"
   sodipodi:docname="pluginIcon.svg"
   xmlns:inkscape="http://www.inkscape.org/namespaces/inkscape"
   xmlns:sodipodi="http://sodipodi.sourceforge.net/DTD/sodipodi-0.dtd"
   xmlns:xlink="http://www.w3.org/1999/xlink"
   xmlns="http://www.w3.org/2000/svg"
   xmlns:svg="http://www.w3.org/2000/svg">
  <sodipodi:namedview
     id="namedview1"
     pagecolor="#ffffff"
     bordercolor="#000000"
     borderopacity="0.25"
     inkscape:showpageshadow="2"
     inkscape:pageopacity="0.0"
     inkscape:pagecheckerboard="0"
     inkscape:deskcolor="#d1d1d1"
     inkscape:document-units="px"
     inkscape:zoom="2"
     inkscape:cx="-81.5"
     inkscape:cy="71.5"
     inkscape:window-width="2560"
     inkscape:window-height="1350"
     inkscape:window-x="0"
     inkscape:window-y="54"
     inkscape:window-maximized="1"
     inkscape:current-layer="layer1" />
  <defs
     id="defs1">
    <inkscape:path-effect
       effect="fillet_chamfer"
       id="path-effect1"
       is_visible="true"
       lpeversion="1"
       nodesatellites_param="F,0,0,1,0,5,0,1 @ F,0,0,1,0,5,0,1 @ F,0,0,1,0,5,0,1 @ F,0,0,1,0,5,0,1"
       radius="5"
       unit="px"
       method="auto"
       mode="F"
       chamfer_steps="1"
       flexible="false"
       use_knot_distance="true"
       apply_no_radius="true"
       apply_with_radius="true"
       only_selected="false"
       hide_knots="false" />
    <linearGradient
       inkscape:collect="always"
       xlink:href="#linearGradient1-5"
       id="linearGradient2-7"
       x1="0"
       y1="0"
       x2="32"
       y2="32"
       gradientUnits="userSpaceOnUse" />
    <linearGradient
       id="linearGradient1-5"
       inkscape:collect="always">
      <stop
         style="stop-color:#f01c1c;stop-opacity:1;"
         offset="0.07417218"
         id="stop1-3" />
      <stop
         style="stop-color:#8a0f64;stop-opacity:1;"
         offset="0.35430458"
         id="stop3" />
      <stop
         style="stop-color:#ff069a;stop-opacity:1;"
         offset="0.9417218"
         id="stop2-5" />
    </linearGradient>
    <inkscape:path-effect
       effect="fillet_chamfer"
       id="path-effect1-6"
       is_visible="true"
       lpeversion="1"
       nodesatellites_param="IC,0,0,1,0,4,0,1 @ IC,0,0,1,0,4,0,1 @ IC,0,0,1,0,4,0,1 @ IC,0,0,1,0,4,0,1"
       radius="4"
       unit="px"
       method="auto"
       mode="F"
       chamfer_steps="1"
       flexible="false"
       use_knot_distance="true"
       apply_no_radius="true"
       apply_with_radius="true"
       only_selected="false"
       hide_knots="false" />
    <inkscape:path-effect
       effect="fillet_chamfer"
       id="path-effect12"
       is_visible="true"
       lpeversion="1"
       nodesatellites_param="IC,0,0,1,0,10,0,1 @ IC,0,0,1,0,10,0,1 @ IC,0,0,1,0,10,0,1 @ IC,0,0,1,0,10,0,1"
       radius="10"
       unit="px"
       method="auto"
       mode="F"
       chamfer_steps="1"
       flexible="false"
       use_knot_distance="true"
       apply_no_radius="true"
       apply_with_radius="true"
       only_selected="false"
       hide_knots="false" />
  </defs>
  <g
     inkscape:label="Слой 1"
     inkscape:groupmode="layer"
     id="layer1">
    <path
       style="fill:url(#linearGradient2-7);fill-opacity:1;stroke-width:5.496;stroke-linejoin:bevel;stroke-miterlimit:40.6"
       id="rect1"
       width="32"
       height="32"
       x="0"
       y="0"
       sodipodi:type="rect"
       d="m 4,0 h 24 l 4,4 v 24 l -4,4 H 4 L 0,28 V 4 Z"
       inkscape:path-effect="#path-effect1-6"
       transform="scale(3.75)" />
    <path
       style="fill:#000000;fill-opacity:0.865067;stroke-width:5.496;stroke-linejoin:bevel;stroke-miterlimit:40.6"
       id="rect11"
       width="32"
       height="32"
       x="0"
       y="0"
       rx="0"
       ry="0"
       inkscape:path-effect="#path-effect12"
       sodipodi:type="rect"
       d="M 10,0 H 22 L 32,10 V 22 L 22,32 H 10 L 0,22 V 10 Z"
       transform="scale(3.7499999)" />
    <path
       style="fill:#ffffff;fill-opacity:0.853039;stroke:none;stroke-width:3.31123;stroke-linejoin:bevel;stroke-miterlimit:40.6;stroke-dasharray:none;paint-order:normal"
       d="m 24.393651,27.559431 v 4.754419 h 1.312358 c 4.665799,0 6.437173,0.355493 7.22948,1.32387 0.616231,0.880341 0.610133,1.13821 0.610133,6.596324 V 68.13892 c 0,7.394868 0.618217,11.101481 2.29087,14.182677 3.609395,6.60255 12.142101,10.118969 24.554909,10.118969 11.268361,0 18.053986,-2.99499 22.367647,-9.77361 2.464959,-4.049564 3.165773,-7.827892 3.165773,-18.303944 V 46.657692 C 85.748796,35.301297 87.419167,32.754027 95.606347,32.31385 V 27.559431 H 70.521882 v 4.754419 c 8.011105,0.440175 9.684917,2.987449 9.508847,14.343842 v 17.705323 c 0,7.218788 -0.352125,10.647109 -1.496551,13.112066 -2.552984,5.546153 -7.570627,8.357655 -14.96549,8.357655 -5.105976,0 -8.805205,-1.400325 -11.270162,-4.305457 -1.936751,-2.376923 -2.901001,-6.697107 -2.901001,-13.123584 v -28.16965 c 0,-5.458115 -0.0061,-5.715984 0.610133,-6.596325 0.792308,-0.968348 2.556224,-1.32387 7.310065,-1.32387 h 1.312355 v -4.754419 z"
       id="path2" />
  </g>
</svg>
